<svg id="Layer_1" data-name="Layer 1" xmlns="http://www.w3.org/2000/svg" viewBox="0 0 198.3 110.1"><defs><style>.cls-1{fill:none;}.cls-2{fill:#242424;}</style></defs><rect class="cls-1" width="198.3" height="110.1"/><path id="path28546" class="cls-2" d="M109.1,49.7l-2.4,16.8h-.1l-2.1-16.8h-6L96.3,66.5h0L93.9,49.7H90.2l3,19.5h6l2.2-16.8h.1l2.2,16.8h6l3.1-19.5Z" transform="translate(0 0)"/><path id="path28548" class="cls-2" d="M176.8,50.6a4.4,4.4,0,0,0-3.6-1.5,4.5,4.5,0,0,0-4.3,2.6h0a4,4,0,0,0-1.3-1.8,3.8,3.8,0,0,0-2.5-.8,4.2,4.2,0,0,0-2.4.7,3.9,3.9,0,0,0-1.4,1.7V49.7h-3.6V69.2h3.6V55.8a4.2,4.2,0,0,1,.7-2.4,2.1,2.1,0,0,1,1.9-.8,1.8,1.8,0,0,1,1.5.7,2.1,2.1,0,0,1,.6,1.8V69.2h3.6V56.1a5,5,0,0,1,.7-2.7,2.5,2.5,0,0,1,1.8-.8,1.8,1.8,0,0,1,1.7.7,2.9,2.9,0,0,1,.5,2V69.2H178V54.3A6.1,6.1,0,0,0,176.8,50.6Z" transform="translate(0 0)"/><path id="path28550" class="cls-2" d="M134.6,67.1l-2.3,2.5h0l-4-3.4h0L123.5,69a5.9,5.9,0,0,1-2.6.7,5.8,5.8,0,0,1-3.6-1.5,4.9,4.9,0,0,1-1.6-3.7,5.1,5.1,0,0,1,2.6-4.5l9.7-5.6h0V53.2H116.6V49.7h14.8V64.4h0l3.2,2.7ZM121.7,66l6.3-3.7h0V58.4m-.1,0L120,63a1.6,1.6,0,0,0-.9,1.5,1.8,1.8,0,0,0,1.7,1.7l.9-.2Z" transform="translate(0 0)"/><path id="path28552" class="cls-2" d="M151.9,51a6,6,0,0,0-4.5-1.9,6.3,6.3,0,0,0-5.2,2.5L140,49.5m-.1,0L137.7,52l3.2,2.9V65.7h-3.2v3.4h11.6V65.7h-4.9v-10a3.3,3.3,0,0,1,2.7-3.2,3.2,3.2,0,0,1,3.4,2.8v1.4h3.4V55.6a6.1,6.1,0,0,0-2-4.6Z" transform="translate(0 0)"/><path id="path28554" class="cls-2" d="M86.6,61.1a4.9,4.9,0,0,0-1.1-1.4,4.4,4.4,0,0,0-1.6-1L82,58l-2.1-.5a8.1,8.1,0,0,1-3.3-1.1,2.1,2.1,0,0,1-.1-3.5,4.5,4.5,0,0,1,3-.5,6.1,6.1,0,0,1,2.6,1.5l1.7,1.6,2.3-2.6-1.6-1.5a8.9,8.9,0,0,0-4.3-2.2,8.5,8.5,0,0,0-5,.7l-1.1.8a5.1,5.1,0,0,0-2,4.1,4.5,4.5,0,0,0,1.7,3.9,11.5,11.5,0,0,0,4.6,1.9,16.6,16.6,0,0,1,3.8,1.1,1.6,1.6,0,0,1,1.1,1.5,2.4,2.4,0,0,1-1.1,2.1,5.8,5.8,0,0,1-5.7,0l-1.9-1.6-1.4-1.2h0L71,65.1l1.1,1.1a11.3,11.3,0,0,0,5.1,2.9l2.2.2a8.9,8.9,0,0,0,5.4-1.7A5.6,5.6,0,0,0,87,62.9a5.8,5.8,0,0,0-.4-1.8Z" transform="translate(0 0)"/><polygon id="polygon28556" class="cls-2" points="20.3 71.7 29.6 76.8 38.8 71.7 38.8 61.3 29.6 56.1 20.3 61.3 20.3 71.7"/><polygon id="polygon28558" class="cls-2" points="50.8 36.6 46 39.4 46 39.4 46 44.9 50.8 47.6 50.9 47.6 55.8 44.9 55.8 39.4 50.8 36.6"/><polygon id="polygon28560" class="cls-2" points="59.9 61.3 50.7 56.1 41.5 61.3 41.5 71.7 50.7 76.8 59.9 71.7 59.9 61.3"/><polygon id="polygon28562" class="cls-2" points="40.1 38.1 30.8 43.3 30.8 53.6 40.1 58.8 49.3 53.6 49.3 49.5 44.8 47 43.6 46.3 43.6 44.9 43.6 40.2 40.1 38.1"/><rect class="cls-1" width="198.3" height="110.1"/></svg>